<?xml version="1.0" encoding="utf-8"?>
<!-- Svg Vector Icons : http://www.onlinewebfonts.com/icon -->
<!DOCTYPE svg PUBLIC "-//W3C//DTD SVG 1.1//EN" "http://www.w3.org/Graphics/SVG/1.1/DTD/svg11.dtd">
<svg width="50px" height="50px" version="1.1" xmlns="http://www.w3.org/2000/svg" xmlns:xlink="http://www.w3.org/1999/xlink" x="0px" y="0px" viewBox="0 0 1000 1000" enable-background="new 0 0 1000 1000" xml:space="preserve">
<metadata> Svg Vector Icons : http://www.onlinewebfonts.com/icon </metadata>
<g>
<g>
<path fill="#708af7" d="M169.2,829.5l-5.7-0.1c-50.1,0-99.9,0-150,0c-0.7,0-1.1-0.1-1.7-0.1c-1.1-0.1-1.7,4.6-1.7,10.5c0,29.8,0,59.5,0,89.3c0,5.9,4.7,11.7,10.6,11.7c47-0.1,93.8,0.7,140.8,0.7c1.9,0,3.7,0,5.7,0c3.2,0,4.4-6.7,4.4-12.7c0-31.8,0-63.2,0-95.2C171.5,829.8,169.2,829.5,169.2,829.5z"/>
<path fill="#708af7" d="M828.4,728.9c0-5.9-2.1-13.6-6.9-13.6c-2.9,0-5.9,0-8.8,0c-18.2,0-36.4,1.4-54.6,1.4c-4.3,0-7.8,0.6-7.7-5.5c0.2-33.2,0.1-66,0.2-99.2c0-0.5,0.1-0.9,0.3-1.5c0.2-0.9,1.9-1.8,3.6-1.9c1.1-0.1,2.2-0.1,3.2-0.1c77.6,0,152.6,0,230.2,0c0.8,0,2.1,0.5,2.1-10.3c0-103.1,0-206.3,0-309.4c0-6,0.6-14.9-5.4-14.9c-20.5,0-41,0-62.2,0c-5.9,0-7.8-0.7-7.8-6.6c0-28.2,0-56.5,0-85.5c0-5.9-7.8-15.5-13.7-15.5c-73.7,0-146.5,0-220.2,0c-5.9,0-13.8,0-13.8-6c0-30.1,0-59.6,0-89.3c0-5.9-1.8-12.4-7.8-12.4c-102.8,0-204.6,0-307.4,0c-5.9,0-7.9,6.5-7.9,12.4c0,29.6,0,59,0,89c0,5.9-7.7,6.3-13.7,6.3c-74.6,0-148.3,0-222.9,0c-5.9,0-11.1,9.3-11.1,15.2c0,28.9,0,57.3,0,85.8c0,5.9-4.5,6.6-10.4,6.6c-20.3,0-40,0-59.6,0c-6,0-16.2,9-16.2,14.9c0,103.1,0,206.3,0,309.4c0,11.2,8,9.9,9.1,9.9c76.6,0,155.8-0.4,232.3-0.4c1.3,0,2.6,0,3.9,0c2.2,0,2.3,5.6,2.3,11.6c0,30.5,0,60.8,0,91.5c0,5.9-3.2,15.4-9.1,15.4c-20.1,0-40.1,0-60.8,0c-5.9,0-5.5,0.2-5.5,6.1c0,32.4,0,64.3,0,96.5c0,0-5.4,5.1-2.4,5.1c49.9,0,98.9,0,148.5,0c6,0,15.4-6.7,15.4-12.6c0-30,0-59.6,0-89.6c0-5.9,0.1-11,3.2-11.2c1.9-0.2,2.5-0.3,4.3-0.3c21.1-0.1,41.7-0.3,62.8,0.1c7.1,0.1,7.5-1.5,7.4-9.3c-0.5-30.8-2.4-61.6-2.4-92.3c0-1.5,0-3.1,0-4.7c0-2.6,8.6-6.2,14.5-6.2c47.7,0,95.1,0,143.2,0c6,0,14.6,3.7,14.6,6.3c0,1.6,0,3.2,0,4.8c0,31-1.7,62.1-2,93.1c-0.1,6.4,1,8.3,7.2,8.2c20.9-0.3,41.3,0.2,62.1-0.2c7.4-0.2,9.3,1.6,9.1,9.7c-0.5,29.4-1.1,58.9-1.1,88.3c0,1.5,0,3.1,0,4.7c0,2.6,6.1,0.3,12,0.3c47,0,93.6,0,140.6,0c6,0,8.9-0.4,8.9-6.3C828.4,787.6,828.4,758.6,828.4,728.9z M419.2,490.7c0,5.9-3.3,9.3-9.2,9.3c-46.5,0-92.7,0-139.4,0c-5.9,0-12.9-3.3-12.9-9.3c0-28.6,0-57.2,0-86.2c0-5.9,7-12.2,12.9-12.2c46.3,0,92.6,0,139.4,0c6,0,9.3,6.3,9.3,12.2C419.2,433.2,419.2,461.8,419.2,490.7z M600.8,500c-5.9,0-9.2-3.5-9.2-9.5c0-28.7,0-57.3,0-86.2c0-5.9,3.3-12,9.2-12c46.5,0,92.7,0,139.4,0c5.9,0,12.9,6.1,12.9,12c0,28.6,0,57.2,0,86.2c0,5.9-7,9.5-12.9,9.5C693.8,500,647.5,500,600.8,500z"/>
<path fill="#708af7" d="M987.8,829.3c-1.6,0.1-1.9,2.3-3.5,2.3c-47.9,0-94.5,2.2-142.4,2.2c-1.6,0-3.1,0-4.7,0c-2.6,0-8.9,0.4-8.9,6.4c0,29.8,0,59.1,0,88.6c0,5.9,6.6,12.7,9.7,12.7c1.9,0,3.7,0,5.5,0c47,0,91.3-0.8,138.3-0.7c5.9,0,8.1-5.8,8.1-11.7c0-29.8,0-59.5,0-89.3C990,833.9,990.5,829.1,987.8,829.3z"/>
<path fill="#708af7" d="M580.7,733.1c0-5.9,0.4-6.9-5.5-6.9c-47.2,0-93.6,0-140.1,0c-5.9,0-15.9,1-15.9,6.9c0,29.3,0,58.3,0,87.4c0,5.9,9.9,13.4,15.9,13.4c46.8,0,93.3,0,140.1,0c5.9,0,5.5-7.4,5.5-13.4C580.7,791.2,580.7,762.2,580.7,733.1z"/></g>
<g></g>
<g></g>
<g></g>
<g></g>
<g></g>
<g></g>
<g></g>
<g></g>
<g></g>
<g></g>
<g></g>
<g></g>
<g></g>
<g></g>
<g></g></g></svg>